{"title":"Kill Command (2016) HQ 1080p Blu-ray x264 DTS-HDMA 5.1 FSub -DDR","uid":14682088,"size":9188870101,"categoryP":"video","categoryS":"hd___movies","magnet":"?xt=urn:btih:83a8644da35530aa3b94fc2f9d54d5ece82a45a9&amp;dn=Kill+Command+%282016%29+HQ+1080p+Blu-ray+x264+DTS-HDMA+5.1+FSub+-DDR&amp;tr=udp%3A%2F%2Ftracker.leechers-paradise.org%3A6969&amp;tr=udp%3A%2F%2Fzer0day.ch%3A1337&amp;tr=udp%3A%2F%2Fopen.demonii.com%3A1337&amp;tr=udp%3A%2F%2Ftracker.coppersurfer.tk%3A6969&amp;tr=udp%3A%2F%2Fexodus.desync.com%3A6969","seeders":6,"leechers":7,"uploader":"SaM","files":3,"time":1464005194,"description":"- HollywooD MoviE -\r\n**- Kill Command -**\r\n- (2016) -\r\n** HQ 1080p Blu-Ray / x264 / DTS-HDMA 5.1 **\r\nFrench subtitle(s)\r\n \nhttp://extraimago.com/image/aUPX \nhttp://extraimago.com/image/aUPP \nhttp://extraimago.com/image/aUPG \nhttp://extraimago.com/image/aUPr \nhttp://extraimago.com/image/aUPp \nhttp://extraimago.com/image/aUPY \nhttp://extraimago.com/image/aUPC \nhttp://extraimago.com/image/aUPB\r\n\r\n[ Specs ]\r\nGeneral\r\nSource = BD50 @ IPT\r\nFormat : Matroska\r\nFile size : 8.44 GiB\r\nDuration : 1h 39mn\r\nOverall bit rate : 12.1 Mbps\r\n\r\nVideo\r\nFormat : AVC\r\nFormat profile :   \r\nBit rate : 10 000 Kbps\r\nWidth : 1 920 pixels\r\nHeight : 800 pixels\r\nDisplay aspect ratio : 2.40:1\r\nFrame rate mode : Constant\r\nFrame rate : 24.000 fps\r\nBit depth : 8 bits\r\nScan type : Progressive\r\nStream size : 6.95 GiB (82%)\r\nTransfer characteristics : BT.709\r\n\r\nAudio #1\r\nFormat : DTS\r\nFormat/Info : Digital Theater Systems\r\nFormat profile : MA / Core\r\nMode : 16\r\nFormat settings, Endianness : Big\r\nCodec ID : A_DTS\r\nDuration : 1h 39mn\r\nBit rate mode : Variable / Constant\r\nBit rate : 2 147 Kbps / 1 509 Kbps\r\nChannel(s) : 6 channels\r\nChannel positions : Front: L C R, Side: L R, LFE\r\nSampling rate : 48.0 KHz\r\nFrame rate : 93.750 fps (512 spf)\r\nBit depth : 16 bits\r\nCompression mode : Lossless / Lossy\r\nStream size : 1.49 GiB (18%)\r\nLanguage : English\r\nDefault : Yes\r\nForced : No\r\n\r\nChapters: YES\r\nSample: YES - included\r\n\r\nA DDR Exclusive Release...!","torrent":{"xt":"urn:btih:83a8644da35530aa3b94fc2f9d54d5ece82a45a9","amp;dn":"Kill+Command+%282016%29+HQ+1080p+Blu-ray+x264+DTS-HDMA+5.1+FSub+-DDR","amp;tr":["udp%3A%2F%2Ftracker.leechers-paradise.org%3A6969","udp%3A%2F%2Fzer0day.ch%3A1337","udp%3A%2F%2Fopen.demonii.com%3A1337","udp%3A%2F%2Ftracker.coppersurfer.tk%3A6969","udp%3A%2F%2Fexodus.desync.com%3A6969"],"infoHash":"83a8644da35530aa3b94fc2f9d54d5ece82a45a9","infoHashBuffer":{"type":"Buffer","data":[131,168,100,77,163,85,48,170,59,148,252,47,157,84,213,236,232,42,69,169]},"announce":[],"urlList":[]}}